<svg width="48" height="48" viewBox="0 0 48 48" fill="none" xmlns="http://www.w3.org/2000/svg">
<path d="M37.2 3.60001H10.8C8.89045 3.60001 7.0591 4.35858 5.70884 5.70884C4.35858 7.0591 3.60001 8.89045 3.60001 10.8V37.2C3.60001 39.1096 4.35858 40.9409 5.70884 42.2912C7.0591 43.6414 8.89045 44.4 10.8 44.4H37.2C39.1096 44.4 40.9409 43.6414 42.2912 42.2912C43.6414 40.9409 44.4 39.1096 44.4 37.2V10.8C44.4 8.89045 43.6414 7.0591 42.2912 5.70884C40.9409 4.35858 39.1096 3.60001 37.2 3.60001ZM11.109 25.659C10.7833 25.6639 10.4635 25.5711 10.1911 25.3924C9.91871 25.2138 9.70612 24.9575 9.5808 24.6568C9.45548 24.3561 9.4232 24.0248 9.48812 23.7055C9.55304 23.3863 9.71219 23.0939 9.94501 22.866L15.24 17.607L9.94501 12.312C9.79333 12.1591 9.67325 11.9779 9.59161 11.7786C9.50998 11.5794 9.46839 11.366 9.46922 11.1506C9.47006 10.9353 9.5133 10.7222 9.59648 10.5236C9.67966 10.325 9.80115 10.1447 9.95401 9.99301C10.1069 9.84133 10.2881 9.72124 10.4874 9.63961C10.6866 9.55798 10.9 9.51639 11.1154 9.51722C11.3307 9.51806 11.5438 9.5613 11.7424 9.64448C11.941 9.72766 12.1213 9.84915 12.273 10.002L18.654 16.464C18.8062 16.6154 18.927 16.7954 19.0094 16.9936C19.0918 17.1918 19.1343 17.4043 19.1343 17.619C19.1343 17.8337 19.0918 18.0462 19.0094 18.2444C18.927 18.4427 18.8062 18.6226 18.654 18.774L12.273 25.17C12.121 25.3243 11.9398 25.4468 11.74 25.5302C11.5401 25.6137 11.3256 25.6564 11.109 25.656V25.659ZM28.782 25.659H19.743C19.3082 25.659 18.8912 25.4863 18.5837 25.1788C18.2762 24.8713 18.1035 24.4543 18.1035 24.0195C18.1035 23.5847 18.2762 23.1677 18.5837 22.8602C18.8912 22.5527 19.3082 22.38 19.743 22.38H28.821C29.2558 22.38 29.6728 22.5527 29.9803 22.8602C30.2878 23.1677 30.4605 23.5847 30.4605 24.0195C30.4605 24.4543 30.2878 24.8713 29.9803 25.1788C29.6728 25.4863 29.2558 25.659 28.821 25.659H28.782Z" fill="#999999" fill-opacity="0.7"/>
</svg>
