<svg width="48" height="48" viewBox="0 0 48 48" fill="none" xmlns="http://www.w3.org/2000/svg">
<path d="M17.4 8.39999H41.4C43 8.39999 43.8 9.19999 43.8 10.8C43.8 12.4 43 13.2 41.4 13.2H17.4C15.8 13.2 15 12.4 15 10.8C15 9.19999 15.8 8.39999 17.4 8.39999Z" fill="#999999" fill-opacity="0.7"/>
<path d="M17.4 21.6H41.4C43 21.6 43.8 22.4 43.8 24C43.8 25.6 43 26.4 41.4 26.4H17.4C15.8 26.4 15 25.6 15 24C15 22.4 15.8 21.6 17.4 21.6Z" fill="#999999" fill-opacity="0.7"/>
<path d="M17.4 34.8H41.4C43 34.8 43.8 35.6 43.8 37.2C43.8 38.8 43 39.6 41.4 39.6H17.4C15.8 39.6 15 38.8 15 37.2C15 35.6 15.8 34.8 17.4 34.8Z" fill="#999999" fill-opacity="0.7"/>
<path d="M6.60001 8.39999H7.80001C9.40001 8.39999 10.2 9.19999 10.2 10.8C10.2 12.4 9.40001 13.2 7.80001 13.2H6.60001C5.00001 13.2 4.20001 12.4 4.20001 10.8C4.20001 9.19999 5.00001 8.39999 6.60001 8.39999Z" fill="#999999" fill-opacity="0.7"/>
<path d="M6.60001 21.6H7.80001C9.40001 21.6 10.2 22.4 10.2 24C10.2 25.6 9.40001 26.4 7.80001 26.4H6.60001C5.00001 26.4 4.20001 25.6 4.20001 24C4.20001 22.4 5.00001 21.6 6.60001 21.6Z" fill="#999999" fill-opacity="0.7"/>
<path d="M6.60001 34.8H7.80001C9.40001 34.8 10.2 35.6 10.2 37.2C10.2 38.8 9.40001 39.6 7.80001 39.6H6.60001C5.00001 39.6 4.20001 38.8 4.20001 37.2C4.20001 35.6 5.00001 34.8 6.60001 34.8Z" fill="#999999" fill-opacity="0.7"/>
</svg>
